<svg width="20" height="20" viewBox="0 0 20 20" fill="none" xmlns="http://www.w3.org/2000/svg">
<path d="M3.41797 5.83705C4.90183 5.0937 6.58044 4.83021 8.2207 5.08315C9.86096 5.33608 11.3818 6.09284 12.5728 7.24867C13.7637 8.40451 14.5657 9.90237 14.8677 11.5343C15.1696 13.1663 14.9564 14.8516 14.2578 16.3571C14.4478 16.2671 14.6381 16.157 14.8281 16.047C14.9353 15.9704 15.049 15.9033 15.168 15.8468C15.2884 15.798 15.4183 15.7775 15.5479 15.7868C15.6279 15.7968 15.7079 15.8171 15.8779 15.8571C16.5133 16.0971 17.1892 16.2124 17.8682 16.1969C18.1949 16.1303 18.4946 15.9683 18.7295 15.7316C18.9644 15.4949 19.1238 15.1941 19.188 14.8668C19.2032 14.1911 19.0879 13.5188 18.8481 12.8869C18.8081 12.7169 18.7878 12.6268 18.7778 12.5568C18.7669 12.4271 18.7875 12.2969 18.8379 12.1769C18.8979 12.0565 18.9648 11.9396 19.0381 11.8268C21.0981 8.5068 19.4983 4.48719 17.4883 2.47719C16.4611 1.45429 15.1893 0.710883 13.7939 0.318009C12.3986 -0.0748636 10.9256 -0.104149 9.51562 0.23256C8.10565 0.56927 6.80556 1.26087 5.73828 2.24184C4.671 3.22281 3.87211 4.46041 3.41797 5.83705Z" fill="#FAFAFA"/>
<path fill-rule="evenodd" clip-rule="evenodd" d="M4.25831 19.2063C6.99831 20.9063 10.3587 19.5263 11.9487 17.9363C12.6313 17.2943 13.1777 16.5215 13.5562 15.6643C13.9346 14.8072 14.1373 13.8829 14.1519 12.9461C14.1665 12.0092 13.9927 11.0787 13.6411 10.2102C13.2895 9.34168 12.7672 8.5528 12.105 7.8899C11.4428 7.22701 10.6543 6.70381 9.78615 6.35133C8.91797 5.99884 7.9877 5.82401 7.05079 5.83766C6.11389 5.8513 5.1891 6.05282 4.33156 6.43043C3.47401 6.80804 2.70125 7.354 2.05861 8.0359C0.408607 9.6959 -0.901413 13.0061 0.788588 15.7361C0.852204 15.8285 0.908942 15.9255 0.958509 16.0261C0.996781 16.1247 1.01055 16.2311 0.998548 16.3362C0.989832 16.4283 0.969618 16.519 0.93849 16.6062C0.745686 17.1309 0.65405 17.687 0.66847 18.2459C0.722209 18.5149 0.85437 18.7623 1.04835 18.9563C1.24234 19.1503 1.4893 19.2825 1.75831 19.3362C2.31474 19.3504 2.86892 19.255 3.38869 19.0559C3.52869 19.0259 3.59847 19.0059 3.66847 18.9959C3.77429 18.988 3.88053 19.0055 3.97853 19.0462C4.07483 19.0941 4.16811 19.1477 4.25831 19.2063ZM8.99855 12.9861C8.99855 13.1839 9.05712 13.3773 9.16701 13.5418C9.27689 13.7062 9.43301 13.8342 9.61574 13.9099C9.79846 13.9856 9.99988 14.0056 10.1939 13.967C10.3878 13.9285 10.5657 13.833 10.7056 13.6931C10.8454 13.5533 10.9409 13.3754 10.9795 13.1814C11.0181 12.9874 10.9981 12.786 10.9224 12.6033C10.8467 12.4206 10.7187 12.2644 10.5542 12.1545C10.3898 12.0447 10.1963 11.9861 9.99855 11.9861C9.73333 11.9861 9.47905 12.0915 9.29152 12.2791C9.10398 12.4666 8.99855 12.7209 8.99855 12.9861ZM5.99855 12.9861C5.99855 13.1839 6.05712 13.3773 6.16701 13.5418C6.27689 13.7062 6.43301 13.8342 6.61574 13.9099C6.79846 13.9856 6.99988 14.0056 7.19386 13.967C7.38784 13.9285 7.56573 13.833 7.70558 13.6931C7.84543 13.5533 7.94092 13.3754 7.97951 13.1814C8.01809 12.9874 7.99806 12.786 7.92238 12.6033C7.84669 12.4206 7.71866 12.2644 7.55421 12.1545C7.38976 12.0447 7.19633 11.9861 6.99855 11.9861C6.73333 11.9861 6.47905 12.0915 6.29152 12.2791C6.10398 12.4666 5.99855 12.7209 5.99855 12.9861ZM3.99855 13.9861C3.80077 13.9861 3.60733 13.9275 3.44288 13.8176C3.27844 13.7078 3.15041 13.5516 3.07472 13.3689C2.99903 13.1862 2.97901 12.9848 3.01759 12.7908C3.05618 12.5968 3.15166 12.4189 3.29152 12.2791C3.43137 12.1392 3.60926 12.0437 3.80324 12.0051C3.99722 11.9666 4.19864 11.9866 4.38136 12.0623C4.56409 12.138 4.72021 12.266 4.83009 12.4304C4.93997 12.5949 4.99855 12.7883 4.99855 12.9861C4.99855 13.2513 4.89312 13.5056 4.70558 13.6931C4.51804 13.8807 4.26376 13.9861 3.99855 13.9861Z" fill="#FAFAFA"/>
</svg>
