<svg width="21" height="20" viewBox="0 0 21 20" fill="none" xmlns="http://www.w3.org/2000/svg">
<path fill-rule="evenodd" clip-rule="evenodd" d="M12 0.0105753C13.2244 -0.0202592 14.4495 0.0163266 15.6699 0.120439C15.2337 0.653423 14.9969 1.32185 15 2.01058C15 2.80622 15.3163 3.56906 15.8789 4.13167C16.4415 4.69428 17.2044 5.01058 18 5.01058C18.6887 5.01369 19.3572 4.77686 19.8901 4.34065C19.9942 5.56103 20.0308 6.78615 20 8.01058V9.19075C20.0713 10.2715 20.0039 11.357 19.7998 12.4207C19.5627 13.2239 19.1283 13.9546 18.5361 14.5467C17.944 15.1389 17.2133 15.5733 16.4102 15.8104C15.3464 16.0145 14.261 16.0819 13.1802 16.0106H12.5698C11.5502 16.0222 10.5579 16.3393 9.72021 16.9207L9.66992 16.9608L7.06006 18.8304C6.86614 18.9698 6.63183 19.0423 6.39307 19.0369C6.15431 19.0316 5.9238 18.949 5.73633 18.8011C5.54885 18.6532 5.41472 18.4481 5.354 18.2171C5.29329 17.9861 5.30941 17.7414 5.3999 17.5203C5.46597 17.3526 5.4903 17.1716 5.47021 16.9925C5.45013 16.8134 5.38624 16.6419 5.28467 16.493C5.1831 16.3441 5.04665 16.2221 4.88721 16.138C4.72776 16.0539 4.55037 16.0103 4.37012 16.0106H3.77002C2.7704 16.0098 1.81182 15.6124 1.10498 14.9056C0.39814 14.1988 0.000794508 13.2402 0 12.2406V8.01058C0 5.21058 3.9041e-05 3.81056 0.540039 2.74056C1.02192 1.79867 1.7881 1.0325 2.72998 0.550614C3.79998 0.0106143 5.2 0.0105753 8 0.0105753H12ZM7 8.01058C7 8.20836 6.94142 8.40179 6.83154 8.56624C6.72166 8.73069 6.56554 8.85872 6.38281 8.9344C6.20009 9.01009 5.99867 9.03012 5.80469 8.99153C5.61071 8.95295 5.43282 8.85746 5.29297 8.71761C5.15312 8.57775 5.05763 8.39987 5.01904 8.20589C4.98046 8.01191 5.00048 7.81049 5.07617 7.62776C5.15186 7.44504 5.27989 7.28891 5.44434 7.17903C5.60879 7.06915 5.80222 7.01058 6 7.01058C6.26522 7.01058 6.5195 7.11601 6.70703 7.30354C6.89457 7.49108 7 7.74536 7 8.01058ZM11 8.01058C11 8.20836 10.9414 8.40179 10.8315 8.56624C10.7217 8.73069 10.5655 8.85872 10.3828 8.9344C10.2001 9.01009 9.99867 9.03012 9.80469 8.99153C9.61071 8.95295 9.43282 8.85746 9.29297 8.71761C9.15312 8.57775 9.05763 8.39987 9.01904 8.20589C8.98046 8.01191 9.00048 7.81049 9.07617 7.62776C9.15186 7.44504 9.27989 7.28891 9.44434 7.17903C9.60878 7.06915 9.80222 7.01058 10 7.01058C10.2652 7.01058 10.5195 7.11601 10.707 7.30354C10.8946 7.49108 11 7.74536 11 8.01058ZM14 9.01058C14.1978 9.01058 14.3912 8.952 14.5557 8.84212C14.7201 8.73224 14.8481 8.57611 14.9238 8.39339C14.9995 8.21066 15.0195 8.00924 14.981 7.81526C14.9424 7.62128 14.8469 7.4434 14.707 7.30354C14.5672 7.16369 14.3893 7.0682 14.1953 7.02962C14.0013 6.99103 13.7999 7.01106 13.6172 7.08675C13.4345 7.16243 13.2783 7.29046 13.1685 7.45491C13.0586 7.61936 13 7.81279 13 8.01058C13 8.27579 13.1054 8.53007 13.293 8.71761C13.4805 8.90514 13.7348 9.01058 14 9.01058Z" fill="#FAFAFA"/>
<path d="M19.9999 2.01074C19.9999 2.4063 19.8827 2.79317 19.663 3.12207C19.4432 3.45097 19.1305 3.70702 18.765 3.8584C18.3996 4.00977 17.9977 4.04934 17.6097 3.97217C17.2218 3.895 16.8655 3.70451 16.5858 3.4248C16.3061 3.1451 16.1156 2.78884 16.0384 2.40088C15.9613 2.01292 16.0008 1.61106 16.1522 1.24561C16.3036 0.880153 16.5596 0.567419 16.8885 0.347656C17.2174 0.127893 17.6043 0.0107422 17.9999 0.0107422C18.5298 0.0123249 19.0377 0.223414 19.4125 0.598145C19.7872 0.972875 19.9983 1.4808 19.9999 2.01074Z" fill="#FAFAFA"/>
</svg>
