<svg width="19" height="16" viewBox="0 0 19 16" fill="none" xmlns="http://www.w3.org/2000/svg">
<path d="M12.5004 2C12.4982 2.55576 12.6296 3.10387 12.8837 3.59814C13.1378 4.09242 13.5071 4.51819 13.9603 4.83984C13.236 5.56549 12.4714 6.25019 11.6703 6.89014C11.3306 7.23835 10.9247 7.51516 10.4764 7.7041C10.0282 7.89305 9.54686 7.99023 9.06042 7.99023C8.57399 7.99023 8.09265 7.89305 7.64441 7.7041C7.19617 7.51516 6.79022 7.23835 6.45056 6.89014C5.07014 5.74091 3.75774 4.51198 2.52039 3.20996L1.57019 2.25977C2.0901 1.47451 2.81693 0.848572 3.67029 0.450195C4.67029 0.000195324 5.90048 4.39013e-09 8.37048 4.39013e-09H9.9906C11.3306 4.39013e-09 12.3104 -0.000175774 13.0804 0.0698242C12.7009 0.641846 12.4991 1.31353 12.5004 2Z" fill="#FAFAFA"/>
<path d="M17.6607 5.07959C17.1512 5.35618 16.5803 5.50051 16.0005 5.49951C15.823 5.50165 15.6459 5.48823 15.4707 5.45947C14.5594 6.38853 13.5943 7.26348 12.5806 8.07959C11.632 8.98435 10.3715 9.48926 9.06059 9.48926C7.74971 9.48926 6.48915 8.98435 5.54057 8.07959C4.11836 6.9064 2.76914 5.64736 1.50053 4.30957L0.960493 3.76953C0.770493 4.53953 0.640728 5.51941 0.450728 6.89941C0.0107277 10.0394 -0.209448 11.6096 0.270552 12.8296C0.693394 13.8994 1.46997 14.7921 2.47075 15.3594C3.61075 15.9994 5.20065 15.9995 8.37065 15.9995H9.99077C13.1608 15.9995 14.7507 15.9994 15.8907 15.3594C16.8915 14.7921 17.6676 13.8995 18.0904 12.8296C18.5704 11.6096 18.3505 10.0394 17.9205 6.89941C17.8205 6.19941 17.7407 5.59959 17.6607 5.07959Z" fill="#FAFAFA"/>
<path d="M17.9997 2C17.9997 2.39556 17.8826 2.78243 17.6628 3.11133C17.4431 3.44023 17.1303 3.69628 16.7649 3.84766C16.3994 3.99903 15.9976 4.0386 15.6096 3.96143C15.2216 3.88426 14.8654 3.69377 14.5857 3.41406C14.306 3.13436 14.1155 2.7781 14.0383 2.39014C13.9611 2.00217 14.0007 1.60032 14.1521 1.23486C14.3035 0.869411 14.5595 0.556677 14.8884 0.336914C15.2173 0.117151 15.6042 0 15.9997 0C16.5297 0.00158273 17.0376 0.212672 17.4123 0.587402C17.7871 0.962133 17.9982 1.47005 17.9997 2Z" fill="#FAFAFA"/>
</svg>
