<svg width="42" height="64" viewBox="0 0 42 64" fill="none" xmlns="http://www.w3.org/2000/svg">
<path fill-rule="evenodd" clip-rule="evenodd" d="M39.2734 56.008H37.4701V22.748C37.4711 22.3856 37.4049 22.0265 37.2753 21.6912C37.1456 21.356 36.9551 21.0511 36.7146 20.7941C36.4741 20.537 36.1883 20.3329 35.8735 20.1932C35.5587 20.0535 35.2211 19.9811 34.88 19.98L30.1176 20.884V14.552L30.3736 14.66C30.6714 14.7932 30.991 14.8624 31.314 14.8639C31.6371 14.8653 31.9572 14.7989 32.256 14.6684C32.5548 14.5379 32.8263 14.346 33.055 14.1036C33.2838 13.8612 33.4651 13.5732 33.5887 13.256C33.7122 12.9408 33.7756 12.6027 33.7754 12.2612C33.7751 11.9198 33.7112 11.5818 33.5873 11.2668C33.4634 10.9517 33.2819 10.6659 33.0534 10.4258C32.8249 10.1857 32.5539 9.99616 32.256 9.86803L22.528 5.28403C22.387 3.83142 21.743 2.4863 20.721 1.50985C19.6991 0.533405 18.3721 -0.00469589 16.9976 3.08779e-05C13.9144 3.08779e-05 11.4108 2.63203 11.4108 5.87603C11.4108 9.12003 13.9144 11.752 16.9976 11.752C18.4734 11.752 19.8024 11.14 20.8038 10.16L26.3755 12.924V21.624L6.528 25.528C6.18624 25.5286 5.84793 25.6007 5.53247 25.7404C5.217 25.8801 4.93058 26.0846 4.68962 26.3421C4.44866 26.5996 4.25788 26.9051 4.12824 27.2411C3.9986 27.577 3.93263 27.9369 3.93412 28.3V56.02H1.90494C0.854588 56.02 0 57.736 0 59.86C0 61.988 0.854588 63.712 1.90494 63.712H39.2734C40.3238 63.712 41.1784 61.988 41.1784 59.86C41.1784 57.724 40.3238 56.008 39.2734 56.008Z" fill="#14A46A"/>
</svg>
