<svg width="22" height="18" viewBox="0 0 22 18" fill="none" xmlns="http://www.w3.org/2000/svg">
<path fill-rule="evenodd" clip-rule="evenodd" d="M14.9503 0.310059C14.1803 0.250059 13.2298 0.25 12.0298 0.25H10.3399C9.1299 0.25 8.18021 0.250059 7.41021 0.310059C6.50291 0.334208 5.61602 0.584752 4.83014 1.03882C4.04425 1.49288 3.38428 2.13593 2.91021 2.90991C2.74579 3.16846 2.60824 3.44331 2.50006 3.72998C2.10503 5.01635 1.84386 6.33996 1.72027 7.67993L1.70025 7.80005C1.68702 7.89724 1.69281 7.99598 1.71783 8.09082C1.74285 8.18567 1.78631 8.27476 1.84576 8.35278C1.90521 8.43081 1.97971 8.49636 2.06451 8.54565C2.14931 8.59495 2.24268 8.62685 2.3399 8.63989C2.53742 8.66729 2.73773 8.61555 2.89703 8.49561C3.05633 8.37566 3.16174 8.19739 3.19 8C3.35 6.87 3.4599 6.0399 3.5899 5.3999C4.82879 6.70748 6.14821 7.93671 7.5401 9.08008C8.48868 9.98484 9.74924 10.4895 11.0601 10.4895C12.371 10.4895 13.6316 9.98484 14.5801 9.08008C16.0023 7.90682 17.3515 6.64779 18.6202 5.31006L18.73 5.19995C18.88 5.86995 19.0002 6.75 19.1802 8C19.4002 9.59 19.5502 10.7301 19.6002 11.6201C19.6752 12.2744 19.6035 12.937 19.3902 13.5601C19.0372 14.4707 18.3751 15.2281 17.5201 15.7C16.9371 15.9969 16.2944 16.1575 15.6402 16.1699C14.7402 16.2499 13.5903 16.25 11.9903 16.25H10.3702C10.1713 16.25 9.98055 16.3291 9.8399 16.4697C9.69925 16.6104 9.62017 16.8011 9.62017 17C9.62017 17.1989 9.69925 17.3896 9.8399 17.5303C9.98055 17.6709 10.1713 17.75 10.3702 17.75H12.0298C13.5898 17.75 14.8001 17.7499 15.7701 17.6699C16.6378 17.6313 17.4868 17.4063 18.2598 17.01C19.4147 16.3623 20.3092 15.3338 20.7901 14.1001C21.0788 13.283 21.1846 12.4125 21.1002 11.55C21.0502 10.58 20.88 9.37008 20.67 7.83008L20.6402 7.65991C20.5336 6.2337 20.2373 4.82809 19.7598 3.47998C19.6723 3.28179 19.5691 3.09108 19.4503 2.90991C18.858 1.97442 18.0067 1.2311 17.0001 0.77002C16.3502 0.493723 15.6558 0.337895 14.9503 0.310059ZM4.10992 3.82007C4.13201 3.78458 4.1521 3.74775 4.16998 3.70996C4.61401 3.02334 5.24596 2.4784 5.99029 2.13989C6.47901 1.9349 7.00024 1.81988 7.52984 1.80005C8.22984 1.75005 9.12017 1.75 10.3702 1.75H11.9903C13.2403 1.75 14.1299 1.75005 14.8399 1.80005C15.3693 1.82109 15.8909 1.93606 16.3799 2.13989C17.1017 2.46923 17.7153 2.99625 18.15 3.65991L17.6002 4.20996C16.3629 5.51207 15.0505 6.74076 13.67 7.88989C13.3303 8.23811 12.9244 8.51491 12.4761 8.70386C12.0279 8.8928 11.5466 8.99023 11.0601 8.99023C10.5737 8.99023 10.0923 8.8928 9.6441 8.70386C9.19586 8.51491 8.78991 8.23811 8.45025 7.88989C7.06975 6.74076 5.75734 5.51207 4.52008 4.20996L4.50982 4.19995L4.10992 3.82007Z" fill="#FAFAFA"/>
<path d="M1 11.25C0.801088 11.25 0.610379 11.3291 0.469727 11.4697C0.329074 11.6104 0.25 11.8011 0.25 12C0.25 12.1989 0.329074 12.3896 0.469727 12.5303C0.610379 12.6709 0.801088 12.75 1 12.75H4C4.19891 12.75 4.38962 12.6709 4.53027 12.5303C4.67093 12.3896 4.75 12.1989 4.75 12C4.75 11.8011 4.67093 11.6104 4.53027 11.4697C4.38962 11.3291 4.19891 11.25 4 11.25H1Z" fill="#FAFAFA"/>
<path d="M1 14.25C0.801088 14.25 0.610379 14.3291 0.469727 14.4697C0.329074 14.6104 0.25 14.8011 0.25 15C0.25 15.1989 0.329074 15.3896 0.469727 15.5303C0.610379 15.6709 0.801088 15.75 1 15.75H7C7.19891 15.75 7.38962 15.6709 7.53027 15.5303C7.67093 15.3896 7.75 15.1989 7.75 15C7.75 14.8011 7.67093 14.6104 7.53027 14.4697C7.38962 14.3291 7.19891 14.25 7 14.25H1Z" fill="#FAFAFA"/>
</svg>
