<svg width="16" height="22" viewBox="0 0 16 22" fill="none" xmlns="http://www.w3.org/2000/svg">
<path fill-rule="evenodd" clip-rule="evenodd" d="M10.7797 18.7002C13.0897 15.7602 15.9999 11.4799 15.9999 8.60986C15.9999 3.84986 12.4199 0 7.99988 0C3.57988 0 -0.00012207 3.84986 -0.00012207 8.60986C-0.00012207 11.4799 2.91009 15.7602 5.22009 18.7002C6.42009 20.2402 7.02988 21.0098 7.99988 21.0098C8.96988 21.0098 9.57966 20.2402 10.7797 18.7002ZM7.99988 12C7.40653 12 6.82672 11.8243 6.33337 11.4946C5.84003 11.165 5.45546 10.6961 5.22839 10.1479C5.00133 9.59977 4.94174 8.99649 5.0575 8.41455C5.17325 7.83261 5.45923 7.29846 5.87878 6.87891C6.29834 6.45935 6.83249 6.17337 7.41443 6.05762C7.99637 5.94186 8.59965 6.00145 9.14783 6.22852C9.69601 6.45558 10.1649 6.84015 10.4945 7.3335C10.8242 7.82684 10.9999 8.40666 10.9999 9C10.9999 9.79565 10.6836 10.5585 10.121 11.1211C9.55836 11.6837 8.79553 12 7.99988 12Z" fill="#FAFAFA"/>
</svg>
