<svg width="22" height="22" viewBox="0 0 22 22" fill="none" xmlns="http://www.w3.org/2000/svg">
<path d="M11.7401 1.5C12.6001 1.5 12.9797 1.49979 13.2997 1.52979C14.9914 1.68067 16.5763 2.4216 17.7772 3.62256C18.9782 4.82352 19.7191 6.4084 19.87 8.1001C19.9 8.4201 19.8998 8.80016 19.8998 9.66016V10.6499C19.8998 10.8488 19.9789 11.0395 20.1195 11.1802C20.2602 11.3208 20.4509 11.3999 20.6498 11.3999C20.8487 11.3999 21.0394 11.3208 21.1801 11.1802C21.3207 11.0395 21.3998 10.8488 21.3998 10.6499V9.60986C21.3998 8.80986 21.3997 8.36022 21.3597 7.97021C21.1803 5.9264 20.2876 4.01075 18.8378 2.55908C17.3879 1.10741 15.4736 0.21185 13.4301 0.0297852C13.0401 -0.0002148 12.5899 4.28381e-08 11.7899 4.28381e-08H10.7499C10.551 4.28372e-08 10.3603 0.0790743 10.2196 0.219727C10.079 0.360379 9.99988 0.551088 9.99988 0.75C9.99988 0.948912 10.079 1.13962 10.2196 1.28027C10.3603 1.42093 10.551 1.5 10.7499 1.5H11.7401Z" fill="#FAFAFA"/>
<path d="M5.86021 2.77979C5.35369 2.31215 4.68974 2.05273 4.00035 2.05273C3.31097 2.05273 2.64701 2.31215 2.14049 2.77979C2.08762 2.82328 2.03762 2.87017 1.99059 2.91992L1.0902 3.81982C0.646361 4.26407 0.322148 4.81336 0.147324 5.4165C-0.0274998 6.01965 -0.0472666 6.65728 0.0901953 7.27002C0.860844 10.7346 2.60345 13.9078 5.11314 16.4175C7.62284 18.9272 10.7955 20.6693 14.2601 21.4399C14.8729 21.5776 15.5105 21.5581 16.1136 21.3833C16.7168 21.2085 17.2662 20.8839 17.7103 20.4399L18.6102 19.54C18.6702 19.48 18.7104 19.4301 18.7504 19.3901C19.2182 18.8837 19.4779 18.2192 19.4779 17.5298C19.4779 16.8403 19.2182 16.1763 18.7504 15.6699C18.7065 15.6173 18.6596 15.5674 18.6102 15.52L17.1405 14.0498C16.6421 13.5523 16.0056 13.2159 15.3138 13.084C14.6221 12.9521 13.9066 13.0309 13.2601 13.3101C12.8894 13.4728 12.4783 13.5198 12.0804 13.4448C11.6825 13.3699 11.3163 13.1766 11.0301 12.8901L8.64049 10.5C8.3539 10.2139 8.16026 9.84814 8.08531 9.4502C8.01036 9.05225 8.05768 8.64075 8.22057 8.27002C8.49972 7.62351 8.57808 6.90804 8.44615 6.21631C8.31422 5.52457 7.97784 4.88852 7.48033 4.39014L6.01012 2.91992C5.96308 2.87017 5.91308 2.82328 5.86021 2.77979Z" fill="#FAFAFA"/>
<path d="M11.4598 3.54004C11.2609 3.54004 11.0702 3.61911 10.9296 3.75977C10.7889 3.90042 10.7098 4.09113 10.7098 4.29004C10.7098 4.48895 10.7889 4.67966 10.9296 4.82031C11.0702 4.96096 11.2609 5.04004 11.4598 5.04004H12.1698C13.2749 5.05423 14.3312 5.49873 15.1136 6.2793C15.8961 7.05987 16.3429 8.11513 16.3597 9.22021V9.93994C16.3597 10.1389 16.4388 10.3296 16.5795 10.4702C16.7201 10.6109 16.9108 10.6899 17.1097 10.6899C17.3087 10.6899 17.4994 10.6109 17.64 10.4702C17.7807 10.3296 17.8597 10.1389 17.8597 9.93994V9.2002C17.8408 7.70495 17.2384 6.27613 16.181 5.21875C15.1236 4.16137 13.6953 3.55896 12.2001 3.54004H11.4598Z" fill="#FAFAFA"/>
</svg>
