<svg width="22" height="22" viewBox="0 0 22 22" fill="none" xmlns="http://www.w3.org/2000/svg">
<path fill-rule="evenodd" clip-rule="evenodd" d="M11 0.250001C8.87385 0.250001 6.79566 0.880299 5.02783 2.06152C3.26 3.24275 1.882 4.92193 1.06836 6.88623C0.254717 8.85054 0.0417514 11.0119 0.456543 13.0972C0.871334 15.1825 1.89502 17.0981 3.39844 18.6016C4.90185 20.105 6.81754 21.1287 8.90283 21.5435C10.9881 21.9582 13.1495 21.7453 15.1138 20.9316C17.0781 20.118 18.7573 18.74 19.9385 16.9722C21.1197 15.2043 21.75 13.1262 21.75 11C21.7505 9.58814 21.4727 8.19023 20.9326 6.88574C20.3926 5.58126 19.6009 4.3958 18.6025 3.39746C17.6042 2.39913 16.4187 1.60744 15.1143 1.06738C13.8098 0.527332 12.4119 0.249475 11 0.250001ZM11.75 6C11.75 5.80109 11.6709 5.61038 11.5303 5.46973C11.3896 5.32908 11.1989 5.25 11 5.25C10.8011 5.25 10.6104 5.32908 10.4697 5.46973C10.3291 5.61038 10.25 5.80109 10.25 6V11C10.2507 11.1584 10.298 11.3132 10.3862 11.4448C10.4744 11.5764 10.5993 11.6789 10.7456 11.7397C10.8919 11.8006 11.053 11.8168 11.2085 11.7866C11.364 11.7564 11.5073 11.681 11.6201 11.5698L13.6499 9.52979C13.7905 9.38922 13.8696 9.19879 13.8696 9C13.8696 8.80121 13.7905 8.61078 13.6499 8.47022C13.5093 8.32965 13.3189 8.25049 13.1201 8.25049C12.9213 8.25049 12.7304 8.32965 12.5898 8.47022L11.75 9.31006V6Z" fill="#FAFAFA"/>
</svg>
