<svg width="22" height="24" viewBox="0 0 22 24" fill="none" xmlns="http://www.w3.org/2000/svg">
<path d="M20.4102 1C20.408 0.800011 20.3269 0.608992 20.1846 0.468509C20.0422 0.328025 19.8499 0.249464 19.6499 0.250003C19.5519 0.249994 19.4547 0.269564 19.3643 0.307376C19.2738 0.345188 19.1919 0.40044 19.123 0.470218C19.0542 0.539996 19 0.622687 18.9634 0.713626C18.9268 0.804564 18.9088 0.901986 18.9102 1V2.98999C18.9291 3.5568 18.9188 4.12416 18.8799 4.68994C17.4107 3.10596 15.4983 2.00154 13.3921 1.52051C11.2859 1.03948 9.08389 1.20429 7.07275 1.99341C5.06162 2.78254 3.33472 4.15935 2.11768 5.94434C0.900631 7.72933 0.249928 9.83959 0.25 12C0.25 12.1989 0.329074 12.3896 0.469727 12.5303C0.610379 12.6709 0.801088 12.75 1 12.75C1.19891 12.75 1.38962 12.6709 1.53027 12.5303C1.67093 12.3896 1.75 12.1989 1.75 12C1.74987 10.1246 2.31988 8.29358 3.38428 6.74951C4.44868 5.20544 5.95721 4.0213 7.70996 3.35425C9.46272 2.68721 11.3766 2.56868 13.1982 3.01441C15.0199 3.46013 16.6634 4.44913 17.9102 5.8501C17.8602 5.8601 17.81 5.86989 17.75 5.87989C17.34 5.91989 16.8002 5.91992 15.9902 5.91992L14 5.90991C13.8026 5.90911 13.6127 5.98658 13.4722 6.12525C13.3316 6.26391 13.2518 6.45248 13.25 6.64991C13.2492 6.84999 13.3277 7.0424 13.4683 7.18482C13.6088 7.32723 13.7999 7.40807 14 7.40991L16.02 7.41992C16.78 7.41992 17.4099 7.42012 17.9199 7.37012C18.4396 7.3373 18.9391 7.15689 19.3599 6.8501C19.5425 6.70733 19.7073 6.54279 19.8501 6.36011C20.1568 5.93932 20.3372 5.43961 20.3701 4.91992C20.4201 4.40992 20.4199 3.78003 20.4199 3.03003L20.4102 1Z" fill="#FAFAFA"/>
<path d="M21.75 12C21.75 11.8011 21.6709 11.6104 21.5303 11.4697C21.3896 11.3291 21.1989 11.25 21 11.25C20.8011 11.25 20.6104 11.3291 20.4697 11.4697C20.3291 11.6104 20.25 11.8011 20.25 12C20.2498 13.8856 19.6735 15.726 18.5981 17.2749C17.5228 18.8238 16 20.0071 14.2334 20.6663C12.4668 21.3255 10.541 21.4292 8.71387 20.9634C6.88674 20.4976 5.24513 19.4846 4.00977 18.0601C4.06355 18.0577 4.11721 18.051 4.16992 18.04C4.57992 18 5.12018 18 5.93018 18L7.91992 18.01C8.11883 18.01 8.30954 17.9309 8.4502 17.7903C8.59085 17.6496 8.66992 17.4589 8.66992 17.26C8.66992 17.0611 8.59085 16.8704 8.4502 16.7297C8.30954 16.5891 8.11883 16.51 7.91992 16.51L5.89014 16.5C5.14014 16.5 4.51 16.5 4 16.55C3.48031 16.5829 2.98082 16.7633 2.56006 17.0701C2.37499 17.2101 2.20987 17.375 2.06982 17.5601C1.76318 17.9809 1.58279 18.4803 1.5498 19C1.4998 19.51 1.5 20.1399 1.5 20.8899L1.50977 22.9199C1.50977 23.1188 1.58884 23.3098 1.72949 23.4504C1.87014 23.5911 2.06085 23.6699 2.25977 23.6699C2.45868 23.6699 2.64988 23.5911 2.79053 23.4504C2.93118 23.3098 3.00977 23.1188 3.00977 22.9199L3 20.9299C3 20.1599 3.00004 19.63 3.04004 19.22C4.49782 20.8284 6.40848 21.9576 8.52051 22.459C10.6325 22.9604 12.8469 22.8106 14.8721 22.0291C16.8973 21.2476 18.6385 19.8713 19.8662 18.0811C21.0939 16.2908 21.7506 14.1707 21.75 12Z" fill="#FAFAFA"/>
</svg>
