<svg width="64" height="64" viewBox="0 0 64 64" fill="none" xmlns="http://www.w3.org/2000/svg">
<path d="M32 0C14.3269 0 0 14.3269 0 32C0 49.6731 14.3269 64 32 64C49.6731 64 64 49.6731 64 32C64 14.3269 49.6731 0 32 0ZM31.9351 17.7933C34.8868 17.8322 37.3316 20.235 38.1438 23.2969C38.4535 24.5461 38.4885 25.8135 38.1763 27.1367C37.7055 28.9996 36.763 30.8193 35.007 31.9372L37.5663 33.153L43.6474 36.0972C44.2447 36.3532 44.543 36.8652 44.543 37.6332V43.5197C44.543 44.7338 44.6395 45.7807 43.1347 46.2087H20.7356C19.2884 46.1878 19.2285 44.7221 19.2624 43.5197V37.6332C19.2624 36.8652 19.5829 36.3311 20.2229 36.0324L26.4944 33.153L28.9281 32C27.8187 31.2747 26.9439 30.2729 26.3039 28.9929C25.5354 27.3031 25.2307 25.1095 25.7913 23.1043C26.5 20.3863 28.7195 17.9444 31.9351 17.7933ZM21.5035 20.4803C22.4422 20.4803 23.2948 20.7584 24.0628 21.3131C23.8498 21.9103 23.6694 22.5402 23.5197 23.2016C23.3704 23.8628 23.2948 24.5552 23.2948 25.2806C23.2948 26.3473 23.4439 27.3712 23.7426 28.3526C24.0412 29.3339 24.4684 30.2308 25.0233 31.0415C24.7672 31.3828 24.4266 31.6812 23.9999 31.9372L19.2623 34.1134C18.6223 34.4548 18.1103 34.9335 17.7263 35.5522C17.3423 36.1709 17.1509 36.8652 17.1509 37.6333V43.5198H12.4802C11.8026 43.5092 11.3449 42.8263 11.3271 42.1135V36.5451C11.3271 35.9051 11.561 35.4778 12.0303 35.2644L19.1348 32C17.2992 30.8717 16.4137 28.8323 16.3202 26.5613C16.3525 23.7633 18.1865 20.7127 21.5035 20.4803ZM42.4945 20.4803C45.4433 20.5269 47.5733 23.4505 47.6799 26.5613C47.6637 28.6197 46.8602 30.6074 44.9909 31.9372L51.9676 35.2645C52.437 35.5205 52.6708 35.9478 52.6708 36.5452V42.1135C52.6637 42.7745 52.307 43.4524 51.5198 43.5198H46.7194V37.6332C46.7194 36.8652 46.5279 36.1709 46.1439 35.5522C45.7599 34.9334 45.2479 34.4548 44.6079 34.1134C42.6184 33.1887 40.3335 32.525 38.847 30.9767C39.9564 29.27 40.5107 27.3713 40.5107 25.2806C40.5107 23.9579 40.2769 22.6558 39.8075 21.3758C40.5783 20.867 41.4906 20.4946 42.4945 20.4803Z" fill="#14A46A"/>
</svg>
