<svg width="28" height="28" viewBox="0 0 28 28" fill="none" xmlns="http://www.w3.org/2000/svg">
<path d="M13.9999 0C6.28047 0 -3.17259e-05 6.28052 -3.17259e-05 14C-3.17259e-05 16.4104 0.622662 18.7807 1.80353 20.8722L0.0224899 27.227C-0.0359447 27.4357 0.0206639 27.6597 0.17162 27.815C0.28788 27.9349 0.446141 28 0.608662 28C0.657357 28 0.706662 27.9939 0.754748 27.9823L7.38707 26.3395C9.4122 27.4266 11.693 28 13.9999 28C21.7194 28 27.9999 21.7195 27.9999 14C27.9999 6.28052 21.7194 0 13.9999 0ZM21.0425 18.9402C20.743 19.7692 19.3065 20.5258 18.6163 20.6275C17.9966 20.7182 17.2126 20.7571 16.3519 20.4869C15.8303 20.3225 15.1607 20.1046 14.3031 19.7388C10.6978 18.2012 8.34333 14.6166 8.16316 14.3798C7.98359 14.143 6.6956 12.4557 6.6956 10.7094C6.6956 8.96304 7.62386 8.10417 7.95377 7.74869C8.28368 7.39322 8.67264 7.30435 8.91246 7.30435C9.15229 7.30435 9.3915 7.30739 9.6015 7.31713C9.82246 7.32809 10.1189 7.23374 10.4105 7.92643C10.7099 8.63739 11.4288 10.3837 11.5177 10.5621C11.6078 10.7398 11.6674 10.9474 11.5481 11.1842C11.4288 11.421 11.3691 11.5689 11.189 11.7764C11.0088 11.984 10.8116 12.239 10.6497 12.3985C10.4695 12.5757 10.2826 12.7674 10.492 13.1229C10.7014 13.4783 11.4227 14.6403 12.4916 15.5814C13.8642 16.7903 15.0225 17.1652 15.3817 17.343C15.7408 17.5207 15.9508 17.4909 16.1602 17.2541C16.3696 17.0167 17.0586 16.2175 17.2978 15.8626C17.537 15.5077 17.7769 15.5662 18.1068 15.6849C18.4367 15.803 20.2037 16.6612 20.5629 16.839C20.922 17.0167 21.1618 17.1056 21.2519 17.2535C21.342 17.4008 21.342 18.1117 21.0425 18.9402Z" fill="white"/>
</svg>
